<svg width="4723" height="1497" viewBox="0 0 4723 1497" fill="none" xmlns="http://www.w3.org/2000/svg">
<g id="Frame" clip-path="url(#clip0_5_194)">
<path id="Vector" fill-rule="evenodd" clip-rule="evenodd" d="M972.42 31.0368C972.569 29.8745 972.646 28.6895 972.645 27.4865C972.637 12.2986 960.319 -0.00746771 945.131 3.40003e-06L177.926 0.377403C162.738 0.384874 150.432 12.7031 150.44 27.8909C150.44 28.9682 150.503 30.0309 150.624 31.0758C150.508 32.1832 150.458 33.3096 150.478 34.4512L151.776 109.165C151.802 110.683 151.951 112.17 152.213 113.617C152.496 120.062 155.036 126.435 159.858 131.452L474.298 458.634C478.235 465.876 485.323 471.145 493.696 472.62C497.43 473.525 501.321 473.64 505.099 472.959L914.405 467.934L913.9 541.183L547.435 540.766C539.52 540.758 532.382 544.093 527.358 549.44C522.566 554.361 519.6 561.074 519.563 568.486L517.874 909.223L453.313 909.286L457.744 529.61C457.802 524.723 456.58 520.119 454.392 516.116C453.164 513.454 451.486 510.945 449.356 508.701L111.463 152.803C107.125 148.235 101.592 145.484 95.8162 144.574C86.3685 142.313 76.0104 145.137 69.0221 152.839L9.47835 218.468C9.09214 218.894 8.72175 219.328 8.36716 219.771C3.8508 224.664 1.08872 231.202 1.08071 238.386L0.306187 933.083C0.103206 934.435 -0.00135926 935.819 1.33403e-05 937.228C0.00675891 944.151 2.57083 950.474 6.79793 955.304C11.8356 961.258 19.3601 965.042 27.7706 965.051C29.2888 965.053 30.7784 964.932 32.23 964.697L397.666 964.341L396.875 1032.12L37.2951 1029.06C22.1078 1028.93 9.69155 1041.14 9.56256 1056.33C9.55691 1056.99 9.57495 1057.65 9.61589 1058.31L9.1945 1117.78C9.12092 1128.16 14.8132 1137.24 23.2761 1141.98L329.789 1434.26C337.704 1441.81 348.946 1443.71 358.532 1440.07C362.699 1438.69 366.595 1436.29 369.823 1432.88L437.458 1361.4C437.549 1361.31 437.639 1361.21 437.727 1361.12C437.809 1361.03 437.891 1360.94 437.971 1360.85C438.15 1360.65 438.325 1360.45 438.497 1360.24C444.404 1355.27 448.193 1347.85 448.291 1339.52L451.231 1087.58L516.988 1088.14L515.11 1466.95C515.082 1472.6 516.761 1477.86 519.662 1482.24C524.415 1490.46 533.297 1495.99 543.473 1496L1342.02 1496.35C1351.85 1496.36 1360.48 1491.2 1365.34 1483.44C1365.36 1483.43 1365.37 1483.42 1365.38 1483.4C1376.32 1472.87 1376.66 1455.46 1366.13 1444.52L983.763 1047.18C980.91 1044.22 977.552 1042.03 973.955 1040.63C969.956 1038.3 965.314 1036.95 960.355 1036.9L572.259 1033.61L572.603 964.17L938.185 963.814C952.269 963.8 963.871 953.2 965.47 939.547C965.931 937.58 966.182 935.531 966.197 933.426L968.522 596.245L1026.26 596.311L1022.86 998.409C1022.78 1007.92 1027.54 1016.34 1034.83 1021.34C1035.65 1022.43 1036.56 1023.47 1037.55 1024.46L1346.11 1328.69C1356.92 1339.35 1374.33 1339.23 1385 1328.41C1386.13 1327.27 1387.14 1326.05 1388.02 1324.77C1390.93 1323.72 1393.7 1322.17 1396.22 1320.09L1456.08 1270.56C1456.44 1270.27 1456.78 1269.97 1457.12 1269.67C1464.87 1264.84 1470.05 1256.25 1470.1 1246.44L1473.25 571.965C1473.33 571.094 1473.37 570.212 1473.38 569.319C1473.38 566.2 1472.86 563.203 1471.91 560.408C1468.33 549.445 1458.05 541.5 1445.89 541.443C1444.37 541.436 1442.88 541.552 1441.43 541.782L1081.73 541.374L1082.37 465.872L1491.4 460.85C1506.58 460.663 1518.73 448.201 1518.53 433.015C1518.52 432.163 1518.47 431.322 1518.38 430.491C1519.63 422.562 1517.2 414.175 1511.02 407.886L1187.74 78.6228C1177.1 67.7854 1159.36 67.2828 1148.13 77.5002L1147.51 78.0624C1145.09 79.4721 1142.85 81.2783 1140.88 83.4757L1037.36 198.932C1034.29 202.354 1032.24 206.333 1031.18 210.499C1030.09 213.427 1029.48 216.592 1029.45 219.9L1027.83 411.537L969.791 412.249L972.42 31.0368ZM950.388 1091.82L571.986 1088.61L570.239 1441.01L1286.72 1441.33L950.388 1091.82ZM511.411 417.877L914.785 412.925L917.253 55.0137L205.849 55.3637L206.638 100.754L511.411 417.877ZM968.901 541.245L969.411 467.259L1027.36 466.547L1026.73 541.311L968.901 541.245ZM574.429 595.797L913.521 596.182L911.365 908.84L572.875 909.17L574.429 595.797ZM517.602 964.224L452.671 964.287L451.873 1032.58L517.26 1033.14L517.602 964.224ZM398.308 909.34L402.627 539.363L90.6923 210.807L56.0689 248.969L55.3323 909.674L398.308 909.34ZM396.233 1087.11L64.4331 1084.3L64.2858 1105.09L348.144 1375.77L393.422 1327.92L396.233 1087.11ZM1081.27 596.373L1077.96 987.058L1367.46 1272.5L1415.16 1233.04L1418.13 596.756L1081.27 596.373ZM1082.84 410.861L1431.25 406.584L1166.66 137.105L1084.38 228.885L1082.84 410.861Z" fill="#0D0000"/>
<path id="Vector_2" fill-rule="evenodd" clip-rule="evenodd" d="M2976.79 367.334L2810.95 468.846L2810.96 709.876L3398.62 709.564L3398.55 626.376C3398.54 611.188 3410.84 598.866 3426.03 598.853L3499.51 598.793C3514.7 598.78 3527.02 611.082 3527.03 626.27L3527.1 709.496L3623.56 709.445C3638.75 709.436 3651.07 721.742 3651.08 736.93L3651.12 810.409C3651.12 825.596 3638.82 837.915 3623.63 837.923L3527.21 837.974L3527.51 1201.48C3527.52 1216.67 3515.22 1228.99 3500.03 1229.01L3426.55 1229.07C3423.68 1229.07 3420.92 1228.63 3418.31 1227.82L2846.24 1226.18C2835.89 1230.42 2823.56 1228.04 2815.56 1219.32L2695.93 1088.95C2687.89 1084.15 2682.5 1075.37 2682.5 1065.32L2682.48 748.302V737.444C2682.48 737.26 2682.48 737.077 2682.48 736.893L2682.46 411.117C2682.46 398.573 2690.86 387.99 2702.34 384.685L2936.79 241.184C2944.28 236.6 2953.09 236.028 2960.73 238.863L3448.26 238.623C3463.45 238.616 3475.76 250.922 3475.77 266.11L3475.81 339.588C3475.81 354.776 3463.51 367.094 3448.32 367.102L2976.79 367.334ZM2810.98 1024.3L2810.97 838.355L3398.73 838.043L3398.94 1099.28L2878.42 1097.8L2810.98 1024.3ZM2580.72 339.588C2580.72 354.776 2568.42 367.094 2553.23 367.102L1844.79 367.45L1752.41 515.588L1756.98 1039.57L1855.09 1125.96L2553.17 1125.62C2568.35 1125.61 2580.67 1137.92 2580.68 1153.1L2580.72 1226.58C2580.72 1241.77 2568.42 1254.09 2553.23 1254.1L1831.89 1254.45C1822.25 1259.06 1810.38 1257.78 1801.85 1250.28L1637.1 1105.2C1628.88 1097.96 1626.01 1086.9 1628.82 1077.03L1623.7 489.228C1623.65 483.249 1625.51 477.699 1628.71 473.158C1629.4 470.748 1630.43 468.391 1631.83 466.158L1761.67 257.944C1762.45 256.693 1763.31 255.526 1764.25 254.446C1768.71 245.304 1778.1 239.004 1788.96 238.999L2553.17 238.623C2568.35 238.616 2580.67 250.922 2580.68 266.11L2580.72 339.588ZM4034.91 370.453L3914.69 457.186L3912.99 660.86L4522.29 662.175L4597.08 575.037V370.155L4034.91 370.453ZM4722.35 609.724C4723.16 613.497 4723.16 617.418 4722.35 621.214V622.543H4722.04C4721.01 626.417 4719.11 630.125 4716.33 633.371L4650.23 710.385L4702.12 771.041C4707.42 777.241 4709.48 785.12 4708.47 792.615L4715.28 1229.56C4715.52 1244.75 4703.4 1257.25 4688.21 1257.49L4614.74 1258.63C4599.56 1258.87 4587.06 1246.75 4586.82 1231.56L4580.5 826.525L4549.87 790.713L3911.92 789.337L3908.23 1231.94C3908.11 1247.13 3895.69 1259.34 3880.5 1259.21L3807.03 1258.6C3791.84 1258.47 3779.63 1246.06 3779.76 1230.87L3786.63 407.109C3786.65 404.603 3787 402.178 3787.65 399.877C3788.88 393.132 3792.62 386.835 3798.61 382.507L3986.85 246.7C3993.24 242.088 4000.94 240.619 4008.12 241.994C4008.29 241.991 4008.45 241.989 4008.62 241.989L4597.08 241.676V241.45H4722.35V609.724Z" fill="#100101"/>
</g>
<defs>
<clipPath id="clip0_5_194">
<rect width="4723" height="1497" fill="white"/>
</clipPath>
</defs>
</svg>
